<svg width="1795" height="1332" viewBox="0 0 1795 1332" fill="none" xmlns="http://www.w3.org/2000/svg">
<g id="undraw_Ride_a_bicycle_2yok 1">
<path id="Background" d="M336.272 197.403C327.517 208.026 324.146 222.963 320.376 237.005C290.02 350.172 215.218 441.197 130.032 506.216C93.9569 533.757 50.0376 570.691 57.9299 620.07C62.1797 646.588 80.8242 666.109 94.6758 687.708C123.737 732.933 133.163 794.405 119.312 848.544C103.559 910.144 59.5276 967.622 73.1555 1029.91C81.5592 1068.25 110.093 1095.53 137.525 1118.98C180.32 1155.55 224.479 1189.8 270.002 1221.74C300.517 1243.14 332.981 1263.97 368.545 1266.69C399.859 1269.09 430.533 1257.18 460.266 1245.44C486.243 1235.17 512.876 1224.48 533.853 1203.91C547.545 1190.47 558.457 1173.14 573.667 1162.15C609.39 1136.33 655.275 1152.69 696.238 1163.75C792.896 1189.69 896.344 1180.22 988.32 1137C1129.41 1070.71 1236.95 931.486 1374.95 856.787C1434.29 824.661 1498.83 804.725 1553.78 763.349C1584.73 739.792 1611.33 711.009 1632.38 678.298C1673.92 614.223 1696.38 532.527 1689.9 452.556C1683.41 372.585 1647.06 295.521 1589.98 250.376C1528.87 202.052 1451.69 193.026 1382.16 164.015C1310.36 134.046 1246.48 82.5426 1175.37 50.385C1117.83 24.4362 1055.21 11.698 992.103 13.1051C928.996 14.5121 867.005 30.0287 810.678 58.5162C733.288 97.655 654.843 188.968 568.65 195.901C507.237 200.694 384.234 139.222 336.272 197.403Z" fill="url(#paint0_linear)"/>
<g id="man-bike">
<path id="Vector" d="M656.769 940.574L584.292 869.062L561.643 892.01L634.12 963.522L656.769 940.574Z" fill="#6C63FF"/>
<path id="Vector_2" opacity="0.1" d="M656.769 940.574L584.292 869.062L561.643 892.01L634.12 963.522L656.769 940.574Z" fill="black"/>
<path id="Vector_3" d="M601.58 834.837C601.58 834.837 643.651 812.643 659.909 798.355C669.696 789.793 680.219 782.111 691.356 775.396L744.135 743.275L854.445 734.791L859.536 753.456C859.536 753.456 868.022 780.606 783.168 804.362C698.314 828.118 655.887 865.449 655.887 865.449C655.887 865.449 601.58 884.046 601.58 834.837Z" fill="#DB8B8B"/>
<path id="Vector_4" opacity="0.1" d="M660.384 861.767C657.38 864.057 655.887 865.381 655.887 865.381C655.887 865.381 601.58 884.046 601.58 834.837C601.58 834.837 604.211 833.446 608.369 831.121C612.57 837.961 618.454 843.609 625.459 847.528C632.465 851.446 640.359 853.503 648.386 853.503H654.139L660.384 861.767Z" fill="black"/>
<path id="Vector_5" opacity="0.05" d="M857.941 762.823C853.223 772.817 836.948 789.243 783.168 804.294C714.25 823.587 673.316 851.806 660.384 861.767C657.38 864.057 655.887 865.381 655.887 865.381C655.887 865.381 601.58 884.046 601.58 834.837C601.58 834.837 604.211 833.446 608.369 831.121C620.978 824.215 647.673 809.062 659.858 798.287C669.643 789.723 680.166 782.04 691.305 775.329L744.084 743.207L763.736 741.697L854.394 734.723L859.485 753.388C859.485 753.388 860.673 757.036 857.941 762.823Z" fill="black"/>
<path id="Vector_6" d="M602.429 823.808L557.456 853.503L689.15 963.799C689.15 963.799 708.496 951.921 698.314 938.346C698.314 938.346 664.372 909.499 662.675 868.775L652.493 855.2H646.74C637.012 855.201 627.523 852.181 619.586 846.558C611.648 840.935 605.653 832.985 602.429 823.808V823.808Z" fill="#ABB1D1"/>
<path id="Vector_7" opacity="0.1" d="M857.941 762.823C830.788 749.706 764.5 748.298 764.5 748.298L763.787 741.697L854.445 734.723L859.536 753.388C859.536 753.388 860.673 757.036 857.941 762.823Z" fill="black"/>
<path id="Vector_8" d="M764.5 744.904C764.5 744.904 844.263 746.601 864.628 763.569L854.445 558.249H744.135L764.5 744.904Z" fill="#39393B"/>
<path id="Vector_9" d="M828.582 619.269C828.582 619.269 1028.24 612.481 1032.32 638.29C1036.39 664.1 832.655 653.223 832.655 653.223C832.655 653.223 816.363 636.916 828.582 619.269Z" fill="#535461"/>
<path id="Vector_10" opacity="0.05" d="M828.582 619.269C828.582 619.269 1028.24 612.481 1032.32 638.29C1036.39 664.1 832.655 653.223 832.655 653.223C832.655 653.223 816.363 636.916 828.582 619.269Z" fill="black"/>
<path id="Vector_11" d="M666.952 722.488H631.636V1029.42H666.952V722.488Z" fill="#6C63FF"/>
<path id="Vector_12" opacity="0.1" d="M666.952 722.471V746.109C655.208 747.636 643.193 748.603 631.636 748.976V722.471H666.952Z" fill="black"/>
<path id="Vector_13" d="M664.304 697.036C659.349 696.652 654.42 695.99 649.54 695.05C630.397 691.385 582.132 683.698 569.149 696.747C552.857 713.037 558.288 741.561 601.75 745.634C645.212 749.706 719.918 738.846 734.869 722.539C734.869 722.472 707.835 700.378 664.304 697.036Z" fill="#535461"/>
<path id="Vector_14" d="M657.448 806.687L1028.26 691.249L1040.48 719.773L660.164 850.143L657.448 806.687Z" fill="#6C63FF"/>
<path id="Vector_15" d="M767.47 988.675L1035.05 725.203L1049.98 746.923L794.623 1013.11L767.47 988.675Z" fill="#6C63FF"/>
<path id="Vector_16" opacity="0.1" d="M1109.18 899.08C1100.7 901.273 1092.43 904.209 1084.47 907.853L1068.24 862.53C1076.76 858.819 1085.53 855.717 1094.48 853.248L1109.18 899.08Z" fill="black"/>
<path id="Vector_17" d="M1154.57 1032.13L1135.57 1042.99L1002.96 672.516L997.017 655.938L1028.26 638.273L1036.08 662.674L1154.57 1032.13Z" fill="#6C63FF"/>
<path id="Vector_18" opacity="0.1" d="M1036.08 662.674L1002.96 672.516L997.017 655.938L1028.26 638.273L1036.08 662.674Z" fill="black"/>
<path id="Vector_19" d="M834.012 691.249L1020.1 627.413C1020.1 627.413 1052.7 631.486 1040.46 658.653L853.037 714.327C853.037 714.327 824.526 717.042 834.012 691.249Z" fill="#535461"/>
<path id="Vector_20" opacity="0.1" d="M624.169 1045.03C624.167 1055.44 623.361 1065.83 621.759 1076.11C605.467 1074.94 588.632 1073.25 572.136 1071.55C575.801 1051.37 575.345 1030.66 570.795 1010.67C586.867 1007.27 603.278 1004.03 619.298 1001.1C622.544 1015.51 624.178 1030.25 624.169 1045.03V1045.03Z" fill="black"/>
<path id="Vector_21" opacity="0.1" d="M666.952 993.307V1029.4H631.636V998.856C643.855 996.735 655.734 994.851 666.952 993.307Z" fill="black"/>
<path id="Vector_22" d="M438.763 1044.4C438.763 1044.4 724.008 969.738 747.088 998.228C770.168 1026.72 794.623 1064.76 722.701 1078.34C650.779 1091.91 433.383 1055.24 433.383 1055.24L438.763 1044.4Z" fill="#6C63FF"/>
<path id="Vector_23" opacity="0.1" d="M579.06 918.628L542.811 951.802C536.391 943.562 529.134 936.01 521.156 929.268L554.996 893.922C563.708 901.455 571.759 909.72 579.06 918.628V918.628Z" fill="black"/>
<path id="Vector_24" d="M429.259 1029.42L642.497 806.687L649.302 858.288L440.12 1049.78L429.259 1029.42Z" fill="#6C63FF"/>
<path id="Vector_25" opacity="0.1" d="M1145.75 1064.05C1157.76 1064.05 1167.49 1054.32 1167.49 1042.31C1167.49 1030.31 1157.76 1020.58 1145.75 1020.58C1133.74 1020.58 1124.01 1030.31 1124.01 1042.31C1124.01 1054.32 1133.74 1064.05 1145.75 1064.05Z" fill="black"/>
<path id="Vector_26" opacity="0.1" d="M760.665 1066.09C784.668 1066.09 804.127 1046.63 804.127 1022.63C804.127 998.628 784.668 979.172 760.665 979.172C736.661 979.172 717.202 998.628 717.202 1022.63C717.202 1046.63 736.661 1066.09 760.665 1066.09Z" fill="black"/>
<path id="Vector_27" d="M763.397 1066.09C787.4 1066.09 806.859 1046.63 806.859 1022.63C806.859 998.628 787.4 979.172 763.397 979.172C739.393 979.172 719.935 998.628 719.935 1022.63C719.935 1046.63 739.393 1066.09 763.397 1066.09Z" fill="#535461"/>
<path id="Vector_28" d="M751.793 1019.36L751.779 1019.37C746.675 1023.19 745.631 1030.42 749.448 1035.53L783.943 1081.65C787.76 1086.75 794.992 1087.79 800.096 1083.98L800.11 1083.97C805.214 1080.15 806.257 1072.92 802.44 1067.82L767.945 1021.69C764.129 1016.59 756.897 1015.55 751.793 1019.36Z" fill="#6C63FF"/>
<path id="Vector_29" d="M959.664 419.107L955.625 470.2C955.16 476.671 955.245 483.171 955.88 489.629C956.406 495.347 955.879 505.358 950.279 520.63C943.089 540.139 939.372 560.756 939.299 581.547V639.699L900.266 632.911C900.266 632.911 901.963 551.462 895.175 537.887C888.387 524.312 900.266 403.835 900.266 403.835L959.664 419.107Z" fill="#DB8B8B"/>
<path id="Vector_30" opacity="0.05" d="M957.661 444.424L955.625 470.2C955.166 476.666 955.257 483.16 955.896 489.612C956.423 495.33 955.896 505.341 950.296 520.63C943.106 540.139 939.389 560.756 939.316 581.547V639.699L900.283 632.911C900.283 632.911 901.98 551.462 895.192 537.887C890.389 528.266 894.937 465.024 898.009 428.932C899.282 414.084 900.283 403.835 900.283 403.835L959.681 419.107L957.661 444.424Z" fill="black"/>
<path id="Vector_31" d="M766.231 809.385L751.551 892.87C749.7 904.017 746.861 914.976 743.066 925.619C734.462 949.138 739.96 982.108 744.135 1000.09C745.985 1008.04 747.529 1013.06 747.529 1013.06L703.405 1036.81L689.829 1026.63V1019.85L688.131 868.826C677.949 845.07 681.343 809.436 688.131 795.861C690.062 791.401 691.419 786.714 692.171 781.912C695.565 763.722 696.617 738.167 696.617 738.167C696.617 738.167 723.77 692.352 756.015 722.896C767.894 734.146 772.408 748.858 773.359 762.942C775.022 787.054 766.231 809.385 766.231 809.385Z" fill="#DB8B8B"/>
<path id="Vector_32" opacity="0.1" d="M773.359 762.891C749.82 776.873 708.87 780.827 692.171 781.862C695.565 763.671 696.617 738.117 696.617 738.117C696.617 738.117 723.77 692.301 756.015 722.845C767.894 734.095 772.408 748.807 773.359 762.891Z" fill="black"/>
<path id="Vector_33" d="M830.686 721.148C812.639 730.757 795.586 742.125 779.774 755.085C752.62 777.144 684.737 778.841 684.737 778.841V753.388C686.434 722.845 657.584 688.908 618.551 593.884C593.621 533.204 600.528 498.859 608.776 481.891C613.46 472.304 618.551 468.316 618.551 468.316L830.686 509.041L838.272 531.778L854.445 580.309C854.445 580.309 795.047 583.702 784.865 588.793C774.682 593.884 781.471 639.699 781.471 639.699C771.288 687.211 830.686 721.148 830.686 721.148Z" fill="#515253"/>
<path id="Vector_34" opacity="0.1" d="M959.664 419.107L957.661 444.424C928.132 452.909 907.055 425.895 907.055 425.895C903.974 426.72 900.948 427.735 897.992 428.932C899.265 414.084 900.266 403.835 900.266 403.835L959.664 419.107Z" fill="black"/>
<path id="Vector_35" opacity="0.1" d="M838.272 531.778C837.474 539.703 837.474 544.675 837.474 544.675C837.474 544.675 798.442 576.915 732.256 527.706C666.069 478.497 606.672 492.072 606.672 492.072C606.672 492.072 607.367 488.135 608.776 481.891C613.46 472.304 618.551 468.316 618.551 468.316L830.686 509.041L838.272 531.778Z" fill="black"/>
<path id="Vector_36" d="M982.541 352.845C978.111 387.376 976.635 430.9 976.635 430.9C937.602 461.444 907.055 422.416 907.055 422.416C870.194 432.309 852.867 464.566 844.704 492.717C840.332 507.944 837.903 523.663 837.474 539.499C837.474 539.499 827.156 547.984 808.149 549.68C790.177 551.191 764.415 546.507 732.256 522.531C666.069 473.322 606.672 486.897 606.672 486.897C606.672 486.897 618.551 419.022 645.704 398.66C672.858 378.298 693.223 352.845 727.164 274.789C761.106 196.734 830.686 215.399 830.686 215.399C830.686 215.399 834.08 200.127 896.872 215.399C912.166 219.407 926.323 226.906 938.23 237.306C971.815 265.541 988.107 309.337 982.541 352.845Z" fill="#E46250"/>
<path id="Vector_37" d="M919.562 253.663C919.477 255.92 919.291 258.432 918.985 261.231C915.591 291.775 912.197 288.381 874.861 295.169C851.645 299.394 839.579 279.999 833.775 264.727C831.674 259.195 830.089 253.48 829.04 247.657L910.5 234.082C910.5 234.082 920.258 231.35 919.562 253.663Z" fill="#DB8B8B"/>
<path id="Vector_38" opacity="0.05" d="M844.704 492.802C840.332 508.029 837.903 523.748 837.474 539.584C837.474 539.584 827.156 548.068 808.149 549.765C807.613 548.684 807.203 547.546 806.927 546.371C803.533 531.1 778.077 503.95 778.077 503.95C761.106 488.678 757.712 461.529 757.712 461.529L729.71 379.231L720.376 371.595C720.376 371.595 759.409 341.052 793.35 366.504C827.292 391.957 817.109 446.257 817.109 446.257L823.898 464.922C830.941 470.861 838.102 481.331 844.704 492.802Z" fill="black"/>
<path id="Vector_39" d="M725.467 369.898L762.803 459.832C762.803 459.832 766.197 486.981 783.168 502.253C783.168 502.253 808.624 529.403 812.018 544.675C815.412 559.946 862.931 600.671 862.931 600.671C862.931 600.671 907.055 641.396 910.449 656.667C910.449 656.667 951.179 668.545 946.087 692.301C946.087 692.301 976.635 661.758 946.087 632.911C915.54 604.065 874.81 544.675 874.81 544.675C874.81 544.675 851.051 481.891 828.989 463.225L822.201 444.56C822.201 444.56 832.383 390.261 798.442 364.808C764.5 339.355 725.467 369.898 725.467 369.898Z" fill="#DB8B8B"/>
<path id="Vector_40" opacity="0.1" d="M747.529 1013.01L703.405 1036.76L689.829 1026.58V1019.79C705.075 1018.71 719.888 1014.24 733.189 1006.71C737.262 1004.4 741.097 1002.13 744.169 1000.13C745.951 1007.98 747.529 1013.01 747.529 1013.01Z" fill="black"/>
<path id="Vector_41" opacity="0.1" d="M798.442 298.63L822.201 391.957C822.201 391.957 749.226 403.835 733.953 391.957C718.679 380.079 689.829 376.686 689.829 376.686C689.829 376.686 720.376 288.449 737.347 278.268C754.318 268.087 798.442 298.63 798.442 298.63Z" fill="black"/>
<path id="Vector_42" d="M798.442 295.236L822.201 388.564C822.201 388.564 749.226 400.442 733.953 388.564C718.679 376.686 689.829 373.292 689.829 373.292C689.829 373.292 720.376 285.055 737.347 274.874C754.318 264.693 798.442 295.236 798.442 295.236Z" fill="#D95442"/>
<path id="Vector_43" opacity="0.1" d="M919.562 251.967C914.809 258.527 908.764 264.046 901.798 268.183C894.832 272.321 887.094 274.99 879.059 276.026C871.023 277.063 862.86 276.444 855.073 274.209C847.285 271.974 840.037 268.17 833.775 263.03C831.674 257.498 830.089 251.783 829.04 245.96L910.5 232.385C910.5 232.385 920.258 229.653 919.562 251.967Z" fill="black"/>
<path id="Vector_44" d="M930.814 215.484C930.814 231.235 924.556 246.341 913.416 257.479C902.277 268.617 887.169 274.874 871.416 274.874C855.663 274.874 840.555 268.617 829.415 257.479C818.276 246.341 812.018 231.235 812.018 215.484C812.018 214.5 812.018 213.516 812.018 212.532C812.41 196.78 819.043 181.83 830.459 170.969C841.876 160.108 857.139 154.226 872.892 154.618C888.646 155.009 903.598 161.642 914.46 173.057C925.323 184.471 931.205 199.733 930.814 215.484V215.484Z" fill="#DB8B8B"/>
<path id="Vector_45" opacity="0.05" d="M653.341 397.896C653.341 397.896 697.465 409.774 711.042 440.318C724.619 470.861 761.343 476.444 761.343 476.444" fill="black"/>
<path id="Vector_46" d="M819.655 1069.85H717.83V1102.09H819.655V1069.85Z" fill="#6C63FF"/>
<path id="Vector_47" opacity="0.1" d="M819.655 1069.85H717.83V1102.09H819.655V1069.85Z" fill="black"/>
<path id="Vector_48" d="M733.121 1010.02C742.234 1004.93 750.228 999.84 750.923 997.736C750.923 997.736 773.919 1022 794.403 1029.53C801.29 1032.08 807.884 1035.36 814.072 1039.31C822.184 1044.4 833.758 1050.39 844.263 1050.39C844.263 1050.39 868.022 1070.75 822.201 1074.15C776.38 1077.54 669.464 1065.66 669.464 1065.66L676.252 1023.24C696.086 1024.4 715.834 1019.81 733.121 1010.02Z" fill="#ABB1D1"/>
<path id="Vector_49" opacity="0.1" d="M426.544 1066.09C438.55 1066.09 448.283 1056.35 448.283 1044.35C448.283 1032.34 438.55 1022.61 426.544 1022.61C414.537 1022.61 404.804 1032.34 404.804 1044.35C404.804 1056.35 414.537 1066.09 426.544 1066.09Z" fill="black"/>
</g>
<path id="Hat" d="M768.138 181.439C771.753 192.774 789.114 193.131 798.024 201.479C802.657 205.823 804.812 212.237 809.903 216.106C816.98 221.502 827.196 220.315 836.208 219.025C854.35 216.446 873.832 214.902 890.192 222.724C895.996 225.49 901.206 229.359 907.265 231.616C913.323 233.872 920.841 234.144 925.763 230.139C929.7 226.932 931.143 221.655 934.706 218.126C937.473 215.343 941.325 213.782 944.481 211.338C951.406 206.112 954.392 197.594 956.361 189.449C960.434 172.684 961.605 154.612 954.664 138.713C947.723 122.813 931.024 109.866 912.797 110.697C907.214 110.952 901.766 112.394 896.2 113.005C881.69 114.481 867.349 109.611 852.788 108.78C848.565 108.266 844.28 108.851 840.349 110.477C837.385 112.124 834.828 114.415 832.865 117.179C826.198 125.911 821.634 136.06 819.526 146.841C817.829 154.968 817.744 162.333 807.782 163.589C796.462 165.082 760.484 157.463 768.138 181.439Z" fill="#6C63FF"/>
<g id="left-bike">
<path id="Vector_50" d="M435.274 1218.24L424.634 1052.05L424.413 1051.69L413.687 1055.42L364.336 1199.4L285.846 1143.76L410.87 1053.13L410.989 1052.78L411.702 1052.52L419.763 1046.67L288.681 973.176L256.572 1008.47L261.663 1041.56L412.398 1044.31V1047.7L258.846 1044.95L253.042 1007.38L296.996 959.092L362.758 882.394L363.929 885.567L377.845 870.295L429.538 879.56V877.507L432.932 877.609V880.171L509.912 893.949L438.142 1037.52L427.671 1045.11V1045.95V1046.9L593.646 989.075L573.943 1143.85L433.085 1054.13L428.13 1051.35L511.185 1185.2L435.274 1218.24ZM428.486 1058.15L438.414 1213.21L506.382 1183.72L428.486 1058.15ZM291.735 1143.73L362.656 1194L409.054 1058.7L291.735 1143.73ZM431.439 1049.28L434.986 1051.27L571.346 1138.14L589.674 994.132L431.439 1049.28ZM419.39 1037.06L423.649 1043.93L424.396 1043.39L429.487 882.988L379.016 873.96L365.168 889.232L419.39 1037.06ZM291.396 970.783L418.405 1042.05L416.199 1038.44L362.605 892.049L299.491 961.399L291.396 970.783ZM432.932 883.582L427.841 1040.91L435.512 1035.35L504.939 896.512L432.932 883.582Z" fill="#535461"/>
<path id="Vector_51" d="M621.427 1002.67C614.621 972.43 600.842 944.202 581.189 920.234C573.894 911.327 565.848 903.061 557.141 895.527C523.664 866.628 481.538 849.66 437.373 847.288C393.209 844.915 349.507 857.272 313.125 882.419C276.744 907.565 249.743 944.079 236.36 986.228C222.977 1028.38 223.97 1073.78 239.182 1115.3C254.394 1156.83 282.966 1192.12 320.411 1215.66C357.857 1239.19 402.058 1249.62 446.076 1245.32C490.095 1241.02 531.439 1222.23 563.621 1191.9C595.804 1161.56 617.001 1121.4 623.888 1077.72C625.49 1067.43 626.296 1057.04 626.297 1046.63C626.309 1031.84 624.675 1017.1 621.427 1002.67ZM425.94 1196.7C394.999 1196.67 364.818 1187.11 339.502 1169.32C314.186 1151.54 294.964 1126.38 284.448 1097.29C273.932 1068.19 272.634 1036.56 280.73 1006.7C288.825 976.844 305.922 950.202 329.695 930.4C353.468 910.598 382.763 898.598 413.598 896.03C444.433 893.462 475.31 900.452 502.032 916.05C528.753 931.647 550.022 955.094 562.946 983.204C575.87 1011.31 579.822 1042.72 574.265 1073.15C567.901 1107.84 549.573 1139.2 522.473 1161.78C495.372 1184.35 461.213 1196.71 425.94 1196.7V1196.7Z" fill="#535461"/>
<path id="Vector_52" d="M425.94 1067.69C437.947 1067.69 447.68 1057.96 447.68 1045.95C447.68 1033.95 437.947 1024.22 425.94 1024.22C413.934 1024.22 404.201 1033.95 404.201 1045.95C404.201 1057.96 413.934 1067.69 425.94 1067.69Z" fill="#535461"/>
</g>
<g id="right-bike">
<path id="Vector_53" d="M1158.48 1215.24L1147.86 1049.12L1147.64 1048.76L1136.91 1052.49L1087.54 1196.4L1009.05 1140.75L1134.11 1050.12L1134.23 1049.76L1134.94 1049.51L1143 1043.65L1011.92 970.162L979.796 1005.46L984.887 1038.54L1135.59 1041.23V1044.62L982.036 1041.87L976.266 1004.35L1020.2 956.078L1085.91 879.431L1087.09 882.604L1101 867.332L1152.83 876.614V874.561L1156.22 874.662V877.225L1233.2 891.003L1161.37 1034.64L1150.9 1042.23V1043.08V1044.03L1316.89 986.197L1297.18 1140.97L1156.33 1051.25L1151.37 1048.47L1234.43 1182.34L1158.48 1215.24ZM1151.69 1055.16L1161.62 1210.22L1229.59 1180.72L1151.69 1055.16ZM1014.96 1140.75L1085.88 1191.02L1132.28 1055.72L1014.96 1140.75ZM1154.66 1046.3L1158.21 1048.28L1294.57 1135.16L1312.9 991.152L1154.66 1046.3ZM1142.61 1034.08L1146.87 1040.95L1147.62 1040.41L1152.71 880.007L1102.24 870.946L1088.39 886.218L1142.61 1034.08ZM1014.67 967.82L1141.68 1039.09L1139.47 1035.47L1085.88 889.086L1022.75 958.453L1014.67 967.82ZM1156.16 880.618L1151.06 1037.9L1158.74 1032.33L1228.16 893.497L1156.16 880.618Z" fill="#535461"/>
<path id="Vector_54" d="M1149.84 844C1131.83 843.98 1113.9 846.4 1096.54 851.195C1087.58 853.664 1078.82 856.765 1070.3 860.477C1024.94 880.139 988.479 915.924 967.979 960.91C947.479 1005.9 944.394 1056.89 959.32 1104.02C974.247 1151.14 1006.12 1191.06 1048.79 1216.05C1091.45 1241.04 1141.86 1249.32 1190.28 1239.29C1238.69 1229.26 1281.66 1201.63 1310.88 1161.75C1340.1 1121.87 1353.49 1072.57 1348.46 1023.39C1343.42 974.213 1320.33 928.648 1283.64 895.511C1246.95 862.373 1199.27 844.02 1149.83 844H1149.84ZM1149.16 1193.71C1114.75 1193.69 1081.37 1181.91 1054.57 1160.31C1027.78 1138.71 1009.18 1108.59 1001.87 1074.96C994.552 1041.34 998.963 1006.22 1014.37 975.443C1029.77 944.668 1055.24 920.087 1086.54 905.783C1094.5 902.138 1102.77 899.202 1111.25 897.01C1131.98 891.631 1153.61 890.727 1174.71 894.359C1195.81 897.99 1215.9 906.073 1233.63 918.07C1251.37 930.068 1266.34 945.704 1277.56 963.938C1288.78 982.173 1295.99 1002.59 1298.7 1023.82C1301.42 1045.06 1299.58 1066.63 1293.31 1087.1C1287.04 1107.57 1276.48 1126.47 1262.33 1142.54C1248.18 1158.61 1230.78 1171.49 1211.27 1180.31C1191.76 1189.13 1170.59 1193.7 1149.18 1193.71H1149.16Z" fill="#535461"/>
<path id="Vector_55" d="M1149.16 1064.69C1161.17 1064.69 1170.9 1054.96 1170.9 1042.96C1170.9 1030.95 1161.17 1021.22 1149.16 1021.22C1137.16 1021.22 1127.42 1030.95 1127.42 1042.96C1127.42 1054.96 1137.16 1064.69 1149.16 1064.69Z" fill="#535461"/>
</g>
</g>
<defs>
<linearGradient id="paint0_linear" x1="1333.52" y1="13" x2="-46.7283" y2="1299.12" gradientUnits="userSpaceOnUse">
<stop stop-color="#FFD84C"/>
<stop offset="1" stop-color="#FFB6B6"/>
</linearGradient>
</defs>
</svg>
